<?xml version="1.0" encoding="utf-8"?>
<!-- Generator: Adobe Illustrator 19.0.0, SVG Export Plug-In . SVG Version: 6.00 Build 0)  -->
<svg version="1.1" id="Layer_1" xmlns="http://www.w3.org/2000/svg" xmlns:xlink="http://www.w3.org/1999/xlink" x="0px" y="0px"
	 viewBox="0 0 500 500" style="enable-background:new 0 0 500 500;" xml:space="preserve">
<style type="text/css">
	.st0{fill:#000100;}
	.st1{fill:#1F5195;}
	.st2{fill:#346DB4;}
	.st3{fill:#4BA1D8;}
	.st4{fill:#90D7F4;}
	.st5{fill:#1E5295;}
	.st6{opacity:0.15;fill:#FFFFFF;}
</style>
<g id="XMLID_1_">
	<g id="XMLID_2_">
		<path id="XMLID_3_" class="st0" d="M77.4,283.2c-5.3,0-9-1.2-12.4-4.6l3.5-3.5c2.6,2.6,5.3,3.3,8.9,3.3c4.6,0,7.2-2,7.2-5.3
			c0-1.5-0.4-2.8-1.4-3.6c-0.9-0.8-1.8-1.2-3.8-1.5l-4.1-0.6c-2.8-0.4-5.1-1.4-6.6-2.8c-1.7-1.6-2.6-3.8-2.6-6.7
			c0-6.1,4.4-10.3,11.7-10.3c4.6,0,7.9,1.2,10.8,4l-3.4,3.3c-2.2-2.1-4.7-2.7-7.6-2.7c-4.1,0-6.4,2.4-6.4,5.4c0,1.3,0.4,2.4,1.3,3.2
			c0.9,0.8,2.3,1.4,3.9,1.6l4,0.6c3.2,0.5,5.1,1.3,6.5,2.6c1.9,1.7,2.8,4.2,2.8,7.2C89.9,279.4,84.7,283.2,77.4,283.2z"/>
		<path id="XMLID_4_" class="st0" d="M103.9,282.9c-4.7,0-6.8-3.3-6.8-6.9v-13.7h-2.8v-3.8H97v-7.6h5v7.6h4.8v3.8H102v13.4
			c0,1.8,0.9,2.9,2.7,2.9h2.1v4.3H103.9z"/>
		<path id="XMLID_5_" class="st0" d="M126.5,282.9v-2.3c-1.8,1.8-3.5,2.6-6.6,2.6c-3.1,0-5.2-0.7-6.7-2.3c-1.3-1.3-2-3.2-2-5.3
			c0-4.2,2.9-7.2,8.6-7.2h6.6v-1.8c0-3.1-1.6-4.7-5.4-4.7c-2.7,0-4.1,0.6-5.4,2.4l-3.3-3.1c2.4-2.7,4.8-3.6,8.9-3.6
			c6.8,0,10.3,2.9,10.3,8.5v16.6H126.5z M126.4,271.9h-5.8c-2.9,0-4.5,1.3-4.5,3.6c0,2.3,1.4,3.5,4.6,3.5c1.9,0,3.3-0.1,4.7-1.4
			c0.7-0.7,1.1-1.9,1.1-3.7V271.9z"/>
		<path id="XMLID_6_" class="st0" d="M148.9,283.2c-5.6,0-11.1-3.4-11.1-12.8c0-9.3,5.5-12.7,11.1-12.7c3.4,0,5.8,1,8.2,3.5
			l-3.4,3.3c-1.6-1.7-2.8-2.4-4.8-2.4c-1.9,0-3.5,0.8-4.6,2.2c-1.1,1.4-1.5,3.1-1.5,6c0,2.9,0.4,4.7,1.5,6.1
			c1.1,1.4,2.7,2.2,4.6,2.2c2,0,3.2-0.6,4.8-2.4l3.4,3.3C154.7,282.2,152.3,283.2,148.9,283.2z"/>
		<path id="XMLID_7_" class="st0" d="M178.5,282.9l-7-11.5l-3.7,4.2v7.3h-5V248h5v21.5l9.7-11.5h6.1l-8.6,9.8l9.7,15.1H178.5z"/>
		<path id="XMLID_8_" class="st1" d="M189.9,282.9V248h23v6.1h-16.2v8.2h13.8v6.1h-13.8v8.5h16.2v6.1H189.9z"/>
		<path id="XMLID_9_" class="st1" d="M233.1,282.9l-4.7-7.7l-4.7,7.7h-7.7l8.8-13.1l-8.5-12.5h7.7l4.3,7.3l4.4-7.3h7.7l-8.5,12.5
			l8.8,13.1H233.1z"/>
		<path id="XMLID_10_" class="st1" d="M254.1,283.2c-5.1,0-11.4-2.7-11.4-13.1c0-10.4,6.3-13.1,11.4-13.1c3.5,0,6.2,1.1,8.4,3.4
			l-4.3,4.3c-1.3-1.4-2.5-2-4.1-2c-1.5,0-2.7,0.5-3.6,1.7c-1,1.2-1.4,2.9-1.4,5.6c0,2.7,0.4,4.5,1.4,5.7c0.9,1.1,2.1,1.7,3.6,1.7
			c1.7,0,2.8-0.6,4.1-2l4.3,4.3C260.3,282.1,257.6,283.2,254.1,283.2z"/>
		<path id="XMLID_11_" class="st1" d="M282.2,282.9v-15.6c0-3.4-2.2-4.5-4.2-4.5c-2,0-4.1,1.2-4.1,4.5v15.6h-6.4V248h6.4v11.7
			c1.7-1.8,3.9-2.6,6.1-2.6c5.6,0,8.5,3.9,8.5,9.3v16.5H282.2z"/>
		<path id="XMLID_12_" class="st1" d="M308.5,282.9v-2.2c-1.7,1.7-3.3,2.5-6.3,2.5c-2.9,0-5-0.7-6.5-2.3c-1.4-1.4-2.1-3.5-2.1-5.7
			c0-4.1,2.8-7.4,8.7-7.4h6v-1.3c0-2.8-1.4-4-4.8-4c-2.5,0-3.6,0.6-4.9,2.1l-4.1-4c2.5-2.7,5-3.5,9.2-3.5c7.2,0,10.9,3,10.9,9v16.8
			H308.5z M308.4,272.1h-5.1c-2.3,0-3.6,1.1-3.6,2.9c0,1.8,1.2,2.9,3.7,2.9c1.8,0,2.9-0.1,4-1.2c0.7-0.6,0.9-1.7,0.9-3.2V272.1z"/>
		<path id="XMLID_13_" class="st1" d="M336.5,282.9v-15.5c0-3.5-2.2-4.7-4.2-4.7c-2,0-4.3,1.2-4.3,4.7v15.5h-6.4v-25.6h6.2v2.4
			c1.7-1.8,4-2.6,6.4-2.6c2.6,0,4.6,0.8,6,2.3c2.1,2.1,2.6,4.5,2.6,7.3v16.3H336.5z"/>
		<path id="XMLID_14_" class="st1" d="M358.6,292.6c-3.9,0-6.6-0.8-9.3-3.3l4-4c1.4,1.4,2.8,2,5,2c3.8,0,5.2-2.7,5.2-5.3v-2.6
			c-1.7,1.9-3.6,2.6-6.1,2.6c-2.5,0-4.7-0.8-6.1-2.3c-2.4-2.4-2.6-5.7-2.6-10.2c0-4.5,0.2-7.7,2.6-10.1c1.4-1.4,3.6-2.3,6.1-2.3
			c2.7,0,4.5,0.7,6.2,2.7v-2.4h6.2V282C369.8,288.1,365.4,292.6,358.6,292.6z M359.2,262.8c-3.8,0-4.2,3.2-4.2,6.6
			c0,3.4,0.4,6.7,4.2,6.7c3.8,0,4.2-3.3,4.2-6.7C363.4,266,363,262.8,359.2,262.8z"/>
		<path id="XMLID_15_" class="st1" d="M382,272.1c0,3.3,2,5.7,5.6,5.7c2.8,0,4.2-0.8,5.8-2.4l3.9,3.8c-2.6,2.6-5.1,4-9.7,4
			c-6,0-11.8-2.7-11.8-13.1c0-8.3,4.5-13.1,11.1-13.1c7.1,0,11.1,5.2,11.1,12.2v2.8H382z M391.1,265c-0.7-1.5-2.1-2.6-4.3-2.6
			c-2.2,0-3.6,1.1-4.3,2.6c-0.4,0.9-0.5,1.6-0.6,2.7h9.7C391.6,266.6,391.5,265.9,391.1,265z"/>
	</g>
	<rect id="XMLID_17_" x="398.8" y="227" class="st2" width="36.2" height="7.4"/>
	<rect id="XMLID_35_" x="398.8" y="217.4" class="st3" width="36.2" height="7.5"/>
	<path id="XMLID_38_" class="st4" d="M429.3,207.4h-24.7c-3.2,0-5.7,2.7-5.7,6v1.9H435v-1.9C435,210.1,432.4,207.4,429.3,207.4z"/>
	<path id="XMLID_44_" class="st5" d="M398.8,236.6v1.9c0,3.3,2.6,6,5.7,6H420v7.9l7.6-7.9h1.7c3.2,0,5.7-2.7,5.7-6v-1.9H398.8z"/>
	<path id="XMLID_45_" class="st6" d="M398.8,236.6v1.9c0,3.3,2.6,6,5.7,6h1.1l7.6-7.9H398.8z"/>
	<polygon id="XMLID_46_" class="st6" points="431.7,217.4 398.8,217.4 398.8,224.9 424.5,224.9 	"/>
	<polygon id="XMLID_48_" class="st6" points="422.4,227 398.8,227 398.8,234.5 415.2,234.5 	"/>
</g>
</svg>
